<svg width="24" height="24" viewBox="0 0 24 24" fill="none" xmlns="http://www.w3.org/2000/svg">
<path d="M9.55001 15.88L18.352 7.07899C18.4493 6.98166 18.564 6.92966 18.696 6.92299C18.828 6.91633 18.949 6.96833 19.059 7.07899C19.169 7.18966 19.2243 7.30866 19.225 7.43599C19.2257 7.56333 19.1707 7.68199 19.06 7.79199L10.116 16.742C9.95401 16.904 9.76534 16.985 9.55001 16.985C9.33468 16.985 9.14601 16.904 8.98401 16.742L4.93401 12.692C4.83668 12.5947 4.78601 12.479 4.78201 12.345C4.77801 12.211 4.83068 12.089 4.94001 11.979C5.04934 11.869 5.16834 11.814 5.29701 11.814C5.42568 11.814 5.54468 11.869 5.65401 11.979L9.55001 15.88Z" fill="#909399"/>
</svg>
